<?xml version="1.0" encoding="UTF-8" standalone="no"?>
<!-- Generator: Adobe Illustrator 19.0.0, SVG Export Plug-In . SVG Version: 6.00 Build 0)  -->

<svg
   xmlns:dc="http://purl.org/dc/elements/1.1/"
   xmlns:cc="http://creativecommons.org/ns#"
   xmlns:rdf="http://www.w3.org/1999/02/22-rdf-syntax-ns#"
   xmlns:svg="http://www.w3.org/2000/svg"
   xmlns="http://www.w3.org/2000/svg"
   xmlns:sodipodi="http://sodipodi.sourceforge.net/DTD/sodipodi-0.dtd"
   xmlns:inkscape="http://www.inkscape.org/namespaces/inkscape"
   version="1.1"
   id="Layer_1"
   x="0px"
   y="0px"
   viewBox="0 0 512 512"
   style="enable-background:new 0 0 512 512;"
   xml:space="preserve"
   sodipodi:docname="icon_xesam.svg"
   inkscape:version="0.92.0 r"><metadata
     id="metadata77"><rdf:RDF><cc:Work
         rdf:about=""><dc:format>image/svg+xml</dc:format><dc:type
           rdf:resource="http://purl.org/dc/dcmitype/StillImage" /><dc:title></dc:title></cc:Work></rdf:RDF></metadata><defs
     id="defs75" /><sodipodi:namedview
     pagecolor="#ffffff"
     bordercolor="#666666"
     borderopacity="1"
     objecttolerance="10"
     gridtolerance="10"
     guidetolerance="10"
     inkscape:pageopacity="0"
     inkscape:pageshadow="2"
     inkscape:window-width="1920"
     inkscape:window-height="1132"
     id="namedview73"
     showgrid="false"
     inkscape:zoom="1.3037281"
     inkscape:cx="462.23584"
     inkscape:cy="216.00995"
     inkscape:window-x="1920"
     inkscape:window-y="39"
     inkscape:window-maximized="1"
     inkscape:current-layer="Layer_1" /><circle
     style="fill:#C1D354;"
     cx="256"
     cy="256"
     r="256"
     id="circle2" /><path
     style="fill:#9db138;stroke-width:1.451774"
     d="M 129.875 78.695312 L 102.07617 108.23828 L 74.339844 137.78906 L 74.339844 405.41797 L 154.71289 491.02148 A 256 256 0 0 0 256 512 A 256 256 0 0 0 510.87305 278.51367 L 415.29102 176.70703 L 409.20703 183.1875 L 341.80469 111.39062 L 326.86328 127.30859 L 281.23828 78.710938 L 255.54102 106.06836 L 250.58984 100.80469 L 229.83398 78.695312 L 129.875 78.695312 z M 387.80859 78.710938 L 357.14258 111.36328 L 511.03516 275.28516 A 256 256 0 0 0 512 256 A 256 256 0 0 0 503.16797 189.74023 L 460.26953 144.04883 L 454.71289 149.9668 L 387.80859 78.710938 z "
     id="path4" /><g
     id="g10"
     transform="matrix(1.4066697,0,0,1.4983247,-92.811543,-141.50056)"><rect
       x="251.187"
       y="234.189"
       style="fill:#ffffff"
       width="21.804001"
       height="21.804001"
       id="rect6" /><path
       style="fill:#ffffff"
       d="m 251.18,234.196 v -21.804 h 21.804 V 190.591 H 251.18 V 168.787 H 229.379 V 146.983 H 158.28 l -39.452,39.444 V 365.02 h 88.75 v -21.809 h 21.801 v 21.809 h 43.604 V 343.211 H 251.18 v -21.806 h -21.801 v -21.798 h 43.604 V 277.803 H 251.18 V 256 h -21.801 v 21.809 H 207.578 V 256 h 21.801 v -21.804 z m -43.602,-21.803 h -21.806 v -21.801 h 21.806 z"
       id="path8"
       inkscape:connector-curvature="0" /></g><polygon
     style="fill:#cee2f2"
     points="118.828,186.429 118.828,225.884 158.28,186.429 138.557,166.707 "
     id="polygon12"
     transform="matrix(1.4066697,0,0,1.4983247,-92.811543,-141.50056)" /><g
     id="g40"
     transform="matrix(1.4066697,0,0,1.4983247,-92.811543,-141.50056)"><polygon
       style="fill:#03628a"
       points="158.28,146.988 118.828,186.429 158.28,186.429 "
       id="polygon14" /><rect
       x="263.65399"
       y="256"
       style="fill:#03628a"
       width="21.809"
       height="21.809"
       id="rect16" /><rect
       x="220.39"
       y="343.21899"
       style="fill:#03628a"
       width="21.804001"
       height="21.809"
       id="rect18" /><rect
       x="290.68799"
       y="234.189"
       style="fill:#03628a"
       width="21.804001"
       height="21.804001"
       id="rect20" /><rect
       x="244.09599"
       y="299.59698"
       style="fill:#03628a"
       width="21.798"
       height="21.798"
       id="rect22" /><rect
       x="339.379"
       y="212.39301"
       style="fill:#03628a"
       width="21.809"
       height="21.804001"
       id="rect24" /><rect
       x="371.379"
       y="190.592"
       style="fill:#03628a"
       width="21.804001"
       height="21.801001"
       id="rect26" /><rect
       x="287.155"
       y="168.791"
       style="fill:#03628a"
       width="21.798"
       height="21.804001"
       id="rect28" /><rect
       x="244.09599"
       y="146.995"
       style="fill:#03628a"
       width="21.798"
       height="21.804001"
       id="rect30" /><rect
       x="319.87201"
       y="146.995"
       style="fill:#03628a"
       width="21.798"
       height="21.804001"
       id="rect32" /><rect
       x="317.59399"
       y="256"
       style="fill:#03628a"
       width="21.804001"
       height="21.809"
       id="rect34" /><rect
       x="287.155"
       y="299.59698"
       style="fill:#03628a"
       width="21.798"
       height="21.798"
       id="rect36" /><rect
       x="330.75201"
       y="321.40799"
       style="fill:#03628a"
       width="21.806"
       height="21.806"
       id="rect38" /></g><g
     id="g42" /><g
     id="g44" /><g
     id="g46" /><g
     id="g48" /><g
     id="g50" /><g
     id="g52" /><g
     id="g54" /><g
     id="g56" /><g
     id="g58" /><g
     id="g60" /><g
     id="g62" /><g
     id="g64" /><g
     id="g66" /><g
     id="g68" /><g
     id="g70" /></svg>